#!OML:ASF H:\Terrain\Patient Classification 1\Animal1\Tuesday\Animal1.ASF
:FULLY-SPECIFIED
:DEGREES
2027
root 17.1784 15.8516 -15.6379 -164.454 -171.198 -180.366
lowerback 13.6508 -2.68198 -1.99418
upperback 1.13289 -3.94289 -1.33453
thorax -6.41058 -1.88685 0.458363
lowerneck -4.67115 -6.15962 -10.7441
upperneck -14.2538 -6.07567 24.6598
head -1.98295 -3.48896 9.60655
rclavicle 1.35174e-014 -8.74653e-015
rhumerus -25.8214 32.3816 -102.954
rradius 100.586
rwrist 15.4973
rhand -10.8298 16.8363
rfingers 7.12502
rthumb 15.1844 -12.5865
lclavicle 1.35174e-014 -8.74653e-015
lhumerus -25.3814 -17.8248 103.83
lradius 91.1446
lwrist -72.1473
lhand 9.61002 47.9358
lfingers 7.12502
lthumb 34.7564 74.5484
rfemur -45.4939 22.3931 4.67377
rtibia 35.784
rfoot -10.0397 -15.5637
rtoes -1.38592
lfemur -31.8951 -0.550417 -13.2395
ltibia 40.5651
lfoot -19.4946 18.4984
ltoes -21.775
2028
root 17.1729 15.8458 -15.6349 -164.513 -171.232 -180.543
lowerback 13.7338 -2.7365 -1.7005
upperback 1.17081 -3.96049 -1.17639
thorax -6.42425 -1.90112 0.466925
lowerneck -4.15491 -7.05754 -11.5704
upperneck -14.5919 -7.24215 25.8611
head -1.83143 -4.12538 10.1423
rclavicle -3.81667e-014 1.74931e-014
rhumerus -26.175 32.6648 -103.127
rradius 100.698
rwrist 15.4361
rhand -11.1278 16.9188
rfingers 7.12502
rthumb 14.8974 -12.5256
lclavicle -3.81667e-014 1.74931e-014
lhumerus -25.3867 -17.8 103.941
lradius 91.0517
lwrist -72.3277
lhand 9.6477 48.1456
lfingers 7.12502
lthumb 34.7921 74.75
rfemur -45.4075 22.3307 4.99862
rtibia 35.8377
rfoot -9.78708 -15.2916
rtoes -1.00958
lfemur -31.8668 -0.585834 -12.9954
ltibia 40.7232
lfoot -19.7292 18.3956
ltoes -21.4695
2029
root 17.1662 15.843 -15.63 -164.677 -171.26 -180.567
lowerback 13.9383 -2.75191 -1.55612
upperback 1.19954 -3.9546 -1.06182
thorax -6.50877 -1.89913 0.515523
lowerneck -3.8378 -7.88483 -11.9342
upperneck -14.7715 -8.36885 26.5322
head -1.64725 -4.72604 10.3858
rclavicle -9.54166e-015 8.74653e-015
rhumerus -26.6006 32.7294 -103.334
rradius 100.801
rwrist 15.4596
rhand -11.3912 16.8648
rfingers 7.12502
rthumb 14.6436 -12.5982
lclavicle -9.54166e-015 8.74653e-015
lhumerus -25.5213 -17.915 104.208
lradius 91.0165
lwrist -72.3806
lhand 9.19442 48.2015
lfingers 7.12502
lthumb 34.3619 74.9042
rfemur -45.2279 22.1857 5.24653
rtibia 35.9517
rfoot -9.37199 -14.8181
rtoes -1.80092
lfemur -31.7144 -0.722428 -12.9187
ltibia 40.8406
lfoot -19.8031 18.4896
ltoes -21.7498
2030
root 17.1595 15.8382 -15.6229 -164.672 -171.272 -180.555
lowerback 13.9637 -2.76768 -1.45874
upperback 1.2179 -3.95193 -0.940783
thorax -6.50101 -1.89896 0.588677
lowerneck -3.55927 -8.65818 -12.2044
upperneck -15.094 -9.39866 27.1933
head -1.51019 -5.28899 10.612
rclavicle 2.3059e-014 3.49861e-014
rhumerus -26.7035 32.8219 -103.392
rradius 100.773
rwrist 15.3485
rhand -11.3354 16.9432
rfingers 7.12502
rthumb 14.6973 -12.5158
lclavicle 2.3059e-014 3.49861e-014
lhumerus -25.582 -18.0587 104.478
lradius 90.9988
lwrist -72.4699
lhand 8.87322 48.125
lfingers 7.12502
lthumb 34.0569 74.8961
rfemur -45.2725 21.9008 5.43098
rtibia 36.1313
rfoot -8.50187 -14.3204
rtoes -2.68385
lfemur -31.7396 -0.850695 -12.8825
ltibia 40.9293
lfoot -19.7531 18.6502
ltoes -22.3538
2031
root 17.1538 15.8346 -15.6134 -164.597 -171.268 -180.479
lowerback 13.8027 -2.83261 -1.46472
upperback 1.2933 -4.02512 -0.818329
thorax -6.32063 -1.93598 0.723338
lowerneck -3.29149 -9.3124 -12.4206
upperneck -15.4991 -10.2512 27.8174
head -1.42745 -5.77064 10.8273
rclavicle 3.18055e-014 3.18055e-015
rhumerus -26.5327 33.0922 -103.323
rradius 100.709
rwrist 15.151
rhand -10.9306 17.2846
rfingers 7.12502
rthumb 15.0873 -12.1455
lclavicle 3.18055e-014 3.18055e-015
lhumerus -25.467 -18.1023 104.65
lradius 90.9169
lwrist -72.7071
lhand 8.96907 47.6917
lfingers 7.12502
lthumb 34.1479 74.4425
rfemur -45.4566 21.7114 5.44509
rtibia 36.3608
rfoot -7.69821 -14.055
rtoes -4.03293
lfemur -31.8188 -1.04499 -12.9104
ltibia 40.9973
lfoot -19.8448 18.7266
ltoes -21.8164
